<svg width="273" height="45" viewBox="0 0 273 45" fill="none" xmlns="http://www.w3.org/2000/svg">
<path d="M91.899 15.85L88.7404 32.955H85.0352L86.3715 25.6071H76.2277L74.8914 32.955H71.1255L74.284 15.85H78.05L76.7744 22.6559H86.9182L88.1937 15.85H91.899Z" fill="#6BE2BE"/>
<path d="M113.644 15.85L121.601 32.955H116.864L110.789 19.3433L99.4916 32.955H94.9968L109.332 15.85H113.644Z" fill="#6BE2BE"/>
<path d="M157.074 15.7898L146.262 32.9551H142.375L140.067 24.2821L134.6 32.9551H130.713L126.218 15.7898H130.348L133.567 27.8356L139.642 17.7774H142.314L144.926 27.8356L152.701 15.7898H157.074Z" fill="#6BE2BE"/>
<path d="M184.833 15.85L176.633 23.9809L182.343 32.955H177.544L173.11 25.6071H167.036L165.7 32.955H162.237L165.396 15.85H169.162L167.886 22.6559H173.657L180.277 15.85H184.833Z" fill="#6BE2BE"/>
<path d="M220.731 15.85L220.184 18.741H206.761L206.032 22.5956H218.18L217.633 25.5469H205.485L204.756 30.064H218.119L217.573 32.955H200.383L203.541 15.85H220.731Z" fill="#6BE2BE"/>
<path d="M250.008 15.85L238.528 25.6071L237.192 32.955H233.426L234.762 25.6071L226.927 15.85H232.151L237.192 22.5354L244.785 15.85H250.008Z" fill="#6BE2BE"/>
<path d="M272.786 15.85L272.24 18.741H258.816L258.087 22.5956H270.235L269.689 25.5469H257.54L256.751 30.064H270.175L269.628 32.955H252.438L255.597 15.85H272.786Z" fill="#6BE2BE"/>
<path d="M31.4233 39.2348C29.6218 40.6983 28.1024 41.7744 27.3428 42.291C24.6128 40.3978 22.0299 38.3043 19.6157 36.028C16.5955 33.1602 14.2339 29.6807 12.6918 25.8265C11.7253 25.4877 10.7301 25.2356 9.71817 25.0732C11.39 29.9102 14.1857 34.2895 17.8793 37.8574C20.5719 40.3922 23.4763 42.6962 26.5614 44.7445C26.8014 44.9108 27.0964 44.9801 27.3862 44.9382H27.5598C27.7976 44.9347 28.03 44.8678 28.2327 44.7445C28.3412 44.7445 30.4032 43.281 33.1815 41.0642L31.4233 39.2348Z" fill="#6BE2BE"/>
<path d="M7.85156 12.4183C8.37489 11.7493 9.02342 11.1866 9.76161 10.7611C9.76161 10.0724 9.76161 9.49127 9.76161 9.08235L27.3211 2.6257L44.8806 9.18996C44.938 11.2816 44.8437 13.3747 44.5984 15.4529L46.9643 16.4214C47.3887 13.7025 47.5414 10.9486 47.4201 8.19994V7.44667L27.3428 0L7.46086 7.44667V8.19994C7.37909 9.63361 7.37909 11.0707 7.46086 12.5044L7.85156 12.4183Z" fill="#6BE2BE"/>
<path d="M42.6667 23.1794C46.6604 22.792 52.2386 23.4591 57.4045 23.5452C57.4045 23.5452 40.3659 14.9364 31.228 13.4729L34.9613 11.5574C34.9613 11.5574 11.5415 8.73799 9.19729 14.3768C9.19729 14.3768 -0.830494 15.1085 1.2532 25.1379C1.2532 25.1379 11.2593 13.15 38.8465 44.0559C38.8465 44.0559 33.7241 32.8859 28.6451 28.2371C34.0931 30.3893 42.5364 34.6937 46.6821 38.9981C43.6432 34.705 40.3147 30.6208 36.7194 26.7736C42.3411 27.8066 49.3084 29.5069 53.1068 32.068C49.7801 28.9325 46.2956 25.9658 42.6667 23.1794ZM19.2034 15.5605C19.1275 15.6367 19.0357 15.6955 18.9345 15.7327C18.8332 15.7699 18.7249 15.7846 18.6173 15.7757L11.7802 15.2807L22.5026 12.4828L19.2034 15.5605Z" fill="#6BE2BE"/>
</svg>
