<svg width="150" height="118" viewBox="0 0 150 118" fill="none" xmlns="http://www.w3.org/2000/svg">
<g clip-path="url(#clip0_388_14440)">
<path d="M15.4518 105.296L13.1024 118H10.3464L11.3404 112.543H3.79518L2.8012 118H0L2.3494 105.296H5.1506L4.20181 110.351H11.747L12.6958 105.296H15.4518Z" fill="#6BE2BE"/>
<path d="M31.6265 105.296L37.5452 118H34.0211L29.503 107.891L21.0994 118H17.756L28.4187 105.296H31.6265Z" fill="#6BE2BE"/>
<path d="M63.9307 105.252L55.8886 118H52.997L51.2801 111.559L47.2139 118H44.3223L40.9789 105.252H44.0512L46.4458 114.198L50.9639 106.728H52.9518L54.8946 114.198L60.6777 105.252H63.9307Z" fill="#6BE2BE"/>
<path d="M84.5783 105.296L78.4789 111.335L82.7259 118H79.1566L75.8584 112.543H71.3404L70.3464 118H67.7711L70.1205 105.296H72.9217L71.9729 110.351H76.2651L81.1898 105.296H84.5783Z" fill="#6BE2BE"/>
<path d="M111.28 105.296L110.873 107.444H100.889L100.346 110.306H109.383L108.976 112.498H99.9398L99.3976 115.853H109.337L108.931 118H96.1446L98.494 105.296H111.28Z" fill="#6BE2BE"/>
<path d="M133.057 105.296L124.518 112.543L123.524 118H120.723L121.717 112.543L115.889 105.296H119.774L123.524 110.262L129.172 105.296H133.057Z" fill="#6BE2BE"/>
<path d="M150 105.296L149.593 107.444H139.608L139.066 110.306H148.102L147.696 112.498H138.66L138.072 115.853H148.057L147.651 118H134.864L137.214 105.296H150Z" fill="#6BE2BE"/>
<path d="M79.6536 81.5444C75.9036 84.5861 72.741 86.8226 71.1596 87.8962C65.4771 83.9614 60.1006 79.6103 55.0753 74.8795C48.7885 68.9191 43.8727 61.6875 40.6627 53.6771C38.6509 52.9728 36.5793 52.4489 34.4729 52.1115C37.953 62.1644 43.7723 71.2661 51.4608 78.6816C57.0656 83.9499 63.1113 88.7383 69.5331 92.9955C70.0328 93.3411 70.6468 93.4851 71.25 93.3981H71.6114C72.1064 93.3908 72.5902 93.2518 73.012 92.9955C73.2379 92.9955 77.5301 89.9538 83.3132 85.3465L79.6536 81.5444Z" fill="#6BE2BE"/>
<path d="M30.5873 25.8097C31.6767 24.4193 33.0266 23.2499 34.5633 22.3655C34.5633 20.9341 34.5633 19.7263 34.5633 18.8765L71.1145 5.4572L107.666 19.1001C107.785 23.4473 107.589 27.7974 107.078 32.1168L112.003 34.1297C112.887 28.4787 113.204 22.7553 112.952 17.0425V15.4769L71.1596 3.05176e-05L29.7741 15.4769V17.0425C29.6039 20.0222 29.6039 23.009 29.7741 25.9887L30.5873 25.8097Z" fill="#6BE2BE"/>
<path d="M103.057 48.1752C111.37 47.37 122.982 48.7567 133.735 48.9356C133.735 48.9356 98.2681 31.0433 79.247 28.0016L87.0181 24.0205C87.0181 24.0205 38.2681 18.1608 33.3885 29.8803C33.3885 29.8803 12.5151 31.4011 16.8524 52.2457C16.8524 52.2457 37.6807 27.3306 95.1054 91.5641C95.1054 91.5641 84.4428 68.3488 73.8705 58.6869C85.2108 63.16 102.786 72.1062 111.416 81.0524C105.09 72.1297 98.1615 63.6413 90.6777 55.6452C102.38 57.7923 116.883 61.326 124.789 66.649C117.864 60.1323 110.611 53.9665 103.057 48.1752ZM54.2169 32.3404C54.059 32.4988 53.8679 32.621 53.6571 32.6983C53.4463 32.7755 53.221 32.8061 52.997 32.7878L38.7651 31.7589L61.0843 25.9439L54.2169 32.3404Z" fill="#6BE2BE"/>
</g>
<defs>
<clipPath id="clip0_388_14440">
<rect width="150" height="118" fill="white"/>
</clipPath>
</defs>
</svg>
