<svg width="23" height="30" viewBox="0 0 23 30" fill="none" xmlns="http://www.w3.org/2000/svg">
<g filter="url(#filter0_d_1049_1545)">
<path d="M7.39625 25.6237L17.1125 15.6562C17.2832 15.4812 17.3787 15.2463 17.3787 15.0019C17.3787 14.7574 17.2832 14.5226 17.1125 14.3475L7.39625 4.37623C7.31676 4.29459 7.22172 4.2297 7.11673 4.18539C7.01175 4.14108 6.89895 4.11825 6.785 4.11825C6.67105 4.11825 6.55825 4.14108 6.45327 4.18539C6.34829 4.2297 6.25324 4.29459 6.17375 4.37623C6.01021 4.54367 5.91865 4.76843 5.91865 5.00248C5.91865 5.23653 6.01021 5.4613 6.17375 5.62873L15.3106 15.0019L6.17375 24.3731C6.01077 24.5405 5.91957 24.7648 5.91957 24.9984C5.91957 25.232 6.01077 25.4564 6.17375 25.6237C6.25324 25.7054 6.34828 25.7703 6.45327 25.8146C6.55825 25.8589 6.67105 25.8817 6.785 25.8817C6.89895 25.8817 7.01175 25.8589 7.11673 25.8146C7.22171 25.7703 7.31676 25.7054 7.39625 25.6237V25.6237Z" fill="#6BE2BE"/>
</g>
<defs>
<filter id="filter0_d_1049_1545" x="0.918652" y="-0.881714" width="21.46" height="31.7634" filterUnits="userSpaceOnUse" color-interpolation-filters="sRGB">
<feFlood flood-opacity="0" result="BackgroundImageFix"/>
<feColorMatrix in="SourceAlpha" type="matrix" values="0 0 0 0 0 0 0 0 0 0 0 0 0 0 0 0 0 0 127 0" result="hardAlpha"/>
<feOffset/>
<feGaussianBlur stdDeviation="2.5"/>
<feColorMatrix type="matrix" values="0 0 0 0 0.419608 0 0 0 0 0.886275 0 0 0 0 0.745098 0 0 0 0.8 0"/>
<feBlend mode="normal" in2="BackgroundImageFix" result="effect1_dropShadow_1049_1545"/>
<feBlend mode="normal" in="SourceGraphic" in2="effect1_dropShadow_1049_1545" result="shape"/>
</filter>
</defs>
</svg>
