<svg width="37" height="38" viewBox="0 0 37 38" fill="none" xmlns="http://www.w3.org/2000/svg">
<circle cx="18.5" cy="19" r="18.5" fill="white" fill-opacity="0.8"/>
<path d="M28 25.7044C28 26.7452 27.6908 27.638 27.0723 28.3828C26.4538 29.1276 25.7091 29.5 24.8383 29.5H12.1617C11.2909 29.5 10.5462 29.1276 9.92773 28.3828C9.30924 27.638 9 26.7452 9 25.7044C9 24.8928 9.04206 24.1265 9.12617 23.4056C9.21029 22.6847 9.36615 21.959 9.59375 21.2285C9.82135 20.498 10.1108 19.8726 10.4621 19.3522C10.8134 18.8318 11.2785 18.4069 11.8574 18.0775C12.4363 17.748 13.1018 17.5833 13.8539 17.5833C15.1503 18.8056 16.699 19.4167 18.5 19.4167C20.301 19.4167 21.8497 18.8056 23.1461 17.5833C23.8982 17.5833 24.5637 17.748 25.1426 18.0775C25.7215 18.4069 26.1866 18.8318 26.5379 19.3522C26.8892 19.8726 27.1786 20.498 27.4062 21.2285C27.6339 21.959 27.7897 22.6847 27.8738 23.4056C27.9579 24.1265 28 24.8928 28 25.7044ZM24.2 13C24.2 14.5182 23.6434 15.8145 22.5301 16.8887C21.4168 17.9629 20.0734 18.5 18.5 18.5C16.9266 18.5 15.5832 17.9629 14.4699 16.8887C13.3566 15.8145 12.8 14.5182 12.8 13C12.8 11.4818 13.3566 10.1855 14.4699 9.11133C15.5832 8.03711 16.9266 7.5 18.5 7.5C20.0734 7.5 21.4168 8.03711 22.5301 9.11133C23.6434 10.1855 24.2 11.4818 24.2 13Z" fill="white"/>
</svg>
