<svg width="20" height="16" viewBox="0 0 20 16" fill="none" xmlns="http://www.w3.org/2000/svg">
<path fill-rule="evenodd" clip-rule="evenodd" d="M14.2705 9.02654e-05C14.2254 -0.000926598 14.1806 0.00665682 14.1386 0.0223913C14.0967 0.0381258 14.0585 0.0616912 14.0263 0.0916915C13.9941 0.121692 13.9686 0.157517 13.9513 0.197044C13.934 0.236571 13.9252 0.278996 13.9255 0.321806L14.0034 13.232C14.0037 13.2927 14.0221 13.352 14.0566 13.4031C14.0911 13.4542 14.1402 13.4949 14.1981 13.5205L19.5206 15.8673C19.572 15.89 19.6286 15.9 19.6852 15.8965C19.7418 15.8929 19.7965 15.8759 19.8443 15.847C19.892 15.818 19.9314 15.7781 19.9586 15.7309C19.9858 15.6837 20.0001 15.6307 20 15.5769V2.7013C20.0001 2.6403 19.9817 2.58056 19.9472 2.52912C19.9126 2.47767 19.8633 2.43668 19.8051 2.41096L14.4048 0.0296641C14.3627 0.0111264 14.317 0.00105789 14.2705 9.02654e-05V9.02654e-05ZM12.6853 0.0720266C12.6377 0.0726403 12.5909 0.0827869 12.5478 0.1018L7.00042 2.54804C6.94192 2.5739 6.89248 2.61516 6.85796 2.66691C6.82344 2.71866 6.80529 2.77873 6.80568 2.83998L6.88295 15.6814C6.88319 15.7351 6.89763 15.7878 6.92496 15.8348C6.95229 15.8817 6.99162 15.9214 7.03934 15.9502C7.08706 15.9789 7.14163 15.9958 7.19803 15.9993C7.25443 16.0028 7.31085 15.9928 7.36211 15.9702L12.9095 13.5239C12.968 13.4981 13.0175 13.4569 13.0521 13.4051C13.0866 13.3534 13.1048 13.2933 13.1044 13.232L13.0272 0.390545C13.0269 0.348278 13.0179 0.306471 13.0006 0.26754C12.9832 0.228608 12.9579 0.193324 12.9261 0.163726C12.8943 0.134127 12.8567 0.110802 12.8153 0.095097C12.774 0.0793919 12.7298 0.0716188 12.6853 0.0722265V0.0720266ZM0.345053 0.13557C0.300139 0.134558 0.255466 0.142079 0.213659 0.15769C0.171852 0.173301 0.133755 0.196688 0.101607 0.226475C0.0694596 0.256262 0.0439102 0.291849 0.0264611 0.331143C0.00901208 0.370437 1.54046e-05 0.412646 0 0.455288V13.3307C7.01213e-05 13.3916 0.0184518 13.4512 0.0529849 13.5025C0.087518 13.5539 0.136768 13.5948 0.194947 13.6205L5.50484 15.9624C5.55634 15.9851 5.61305 15.9951 5.66971 15.9915C5.72637 15.9878 5.78114 15.9707 5.82894 15.9416C5.87674 15.9125 5.91602 15.8724 5.94312 15.825C5.97023 15.7776 5.98429 15.7245 5.984 15.6706L5.90632 2.76045C5.90605 2.69972 5.88757 2.64032 5.85305 2.58919C5.81853 2.53806 5.76939 2.49731 5.71137 2.47171L0.479368 0.165144C0.437222 0.146607 0.391493 0.136538 0.345053 0.13557V0.13557Z" fill="white"/>
</svg>
