<svg width="14" height="17" viewBox="0 0 14 17" fill="none" xmlns="http://www.w3.org/2000/svg">
<path d="M13.2619 13.9767C13.2619 14.7296 13.046 15.3754 12.6143 15.9142C12.1826 16.4529 11.6628 16.7223 11.055 16.7223H2.20685C1.59902 16.7223 1.07925 16.4529 0.647551 15.9142C0.21585 15.3754 0 14.7296 0 13.9767C0 13.3896 0.0293557 12.8353 0.088067 12.3138C0.146778 11.7923 0.255567 11.2674 0.414433 10.7389C0.573299 10.2105 0.775335 9.75813 1.02054 9.38168C1.26575 9.00524 1.59039 8.69787 1.99446 8.45957C2.39853 8.22127 2.86304 8.10212 3.38799 8.10212C4.29283 8.98624 5.37381 9.42831 6.63093 9.42831C7.88804 9.42831 8.96902 8.98624 9.87386 8.10212C10.3988 8.10212 10.8633 8.22127 11.2674 8.45957C11.6715 8.69787 11.9961 9.00524 12.2413 9.38168C12.4865 9.75813 12.6886 10.2105 12.8474 10.7389C13.0063 11.2674 13.1151 11.7923 13.1738 12.3138C13.2325 12.8353 13.2619 13.3896 13.2619 13.9767ZM10.6095 4.78666C10.6095 5.8849 10.221 6.82256 9.44389 7.59962C8.66683 8.37668 7.72917 8.76521 6.63093 8.76521C5.53268 8.76521 4.59502 8.37668 3.81796 7.59962C3.0409 6.82256 2.65237 5.8849 2.65237 4.78666C2.65237 3.68841 3.0409 2.75076 3.81796 1.97369C4.59502 1.19663 5.53268 0.808102 6.63093 0.808102C7.72917 0.808102 8.66683 1.19663 9.44389 1.97369C10.221 2.75076 10.6095 3.68841 10.6095 4.78666Z" fill="white"/>
</svg>
