<svg width="12" height="16" viewBox="0 0 12 16" fill="none" xmlns="http://www.w3.org/2000/svg">
<path d="M9.75 5.21884V4.46884C9.75 2.40109 8.06775 0.718842 6 0.718842C3.93225 0.718842 2.25 2.40109 2.25 4.46884V6.71884H1.5C0.67275 6.71884 0 7.39159 0 8.21884V14.2188C0 15.0461 0.67275 15.7188 1.5 15.7188H10.5C11.3273 15.7188 12 15.0461 12 14.2188V8.21884C12 7.39159 11.3273 6.71884 10.5 6.71884H3.75V4.46884C3.75 3.22834 4.7595 2.21884 6 2.21884C7.2405 2.21884 8.25 3.22834 8.25 4.46884V5.21884H9.75Z" fill="white"/>
</svg>
